<svg width="127" height="134" viewBox="0 0 127 134" fill="none" xmlns="http://www.w3.org/2000/svg">
<path d="M126.126 60.8725C125.804 57.4856 123.038 54.9621 119.757 54.9621H71.1848C67.6465 54.9621 64.7515 57.9505 64.7515 61.603V72.9588C64.7515 76.6113 67.6465 79.5997 71.1848 79.5997H100.199C99.4916 85.7092 95.6316 94.94 87.0753 101.116C81.6069 105.034 74.3372 107.757 64.7515 107.757C64.3011 107.757 63.9151 107.757 63.4648 107.69C47.0599 107.159 33.1638 95.8033 28.1458 80.1973C26.7948 76.0136 26.0228 71.6306 26.0228 67.0485C26.0228 62.4663 26.7948 58.0169 28.0814 53.8996C28.4674 52.7042 28.9178 51.5089 29.4324 50.3136C35.3511 36.567 48.2822 26.8713 63.4648 26.4065C63.8508 26.34 64.3011 26.34 64.7515 26.34C73.9512 26.34 80.8349 29.4612 85.6599 32.9144C88.1689 34.7074 91.5143 34.309 93.7016 32.1175L102.644 23.086C105.475 20.2305 105.217 15.3826 102.001 12.9919C91.7716 5.22207 79.2909 0.639954 64.7515 0.639954C64.3011 0.639954 63.9151 0.64002 63.4648 0.706429C38.8252 1.17129 17.6594 15.914 7.30167 37.2311C2.92698 46.2627 0.417969 56.3567 0.417969 67.0485C0.417969 77.7402 2.92698 87.8343 7.30167 96.8659H7.366C17.7237 118.183 38.8895 132.926 63.4648 133.391C63.9151 133.457 64.3011 133.457 64.7515 133.457C82.1216 133.457 96.7253 127.547 107.34 117.386C119.499 105.765 126.512 88.764 126.512 68.5094C126.512 65.6539 126.383 63.1968 126.126 60.8725Z" fill="black"/>
</svg>
