<svg width="132" height="133" viewBox="0 0 132 133" fill="none" xmlns="http://www.w3.org/2000/svg">
<path d="M130.969 60.2555C130.634 56.8674 127.752 54.3429 124.334 54.3429H73.7309C70.0446 54.3429 67.0285 57.3324 67.0285 60.9863V72.3465C67.0285 76.0003 70.0446 78.9898 73.7309 78.9898H103.959C103.221 85.1018 99.1999 94.336 90.2858 100.514C84.5888 104.434 77.0151 107.158 67.0285 107.158C66.5594 107.158 66.1572 107.158 65.688 107.091C48.5971 106.56 34.12 95.1997 28.8921 79.5877C27.4846 75.4024 26.6803 71.0178 26.6803 66.4338C26.6803 61.8499 27.4846 57.3988 28.8251 53.2799C29.2272 52.0841 29.6964 50.8884 30.2326 49.6926C36.3988 35.9408 49.8706 26.2414 65.688 25.7763C66.0902 25.7099 66.5594 25.7099 67.0285 25.7099C76.6129 25.7099 83.7845 28.8322 88.8112 32.2868C91.4252 34.0805 94.9104 33.6819 97.1892 31.4896L106.506 22.4546C109.455 19.598 109.186 14.7482 105.835 12.3566C95.1785 4.58387 82.1759 0 67.0285 0C66.5594 0 66.1572 6.64622e-05 65.688 0.0665003C40.0181 0.531537 17.9673 15.2798 7.17643 36.6051C2.61881 45.6401 0.00488281 55.738 0.00488281 66.4338C0.00488281 77.1297 2.61881 87.2276 7.17643 96.2626H7.24345C18.0343 117.588 40.0851 132.336 65.688 132.801C66.1572 132.868 66.5594 132.868 67.0285 132.868C85.1249 132.868 100.339 126.955 111.398 116.791C124.066 105.165 131.371 88.1577 131.371 67.8954C131.371 65.0387 131.237 62.5807 130.969 60.2555Z" fill="black"/>
</svg>
